<?xml version="1.0" encoding="UTF-8"?>
<svg id="Layer_1" xmlns="http://www.w3.org/2000/svg" version="1.1" viewBox="0 0 200 200">
  <!-- Generator: Adobe Illustrator 29.3.0, SVG Export Plug-In . SVG Version: 2.1.0 Build 146)  -->
  <defs>
    <style>
      .st0 {
        fill: #010101;
      }
    </style>
  </defs>
  <path class="st0" d="M174.9,3.26v82.31h-83.86l-11.3-9.77v-5.94l69.92-46.89V0l-69.92,47.4V3.26h-25.4v47.85L-.59,4.24v24.08l54.94,44.74v13.67H-.59v19.4h54.94v93.88h25.4v-13.28c4.71,2.37,10.03,3.64,15.75,3.64,18.87,0,30.2-13.16,37.94-34.45,6.95-17.61,14.11-24.58,26.62-24.58,5.88,0,10.97,1.91,14.84,5.48v50.79c-.24.41-.49.82-.74,1.21l.74.22v10.97h25.69V3.26h-25.69ZM158.67,114.09c-19.67,0-30.59,11.23-39.33,33.29-7.15,18-13.31,25.94-25.83,25.94-4.69,0-9.85-1.79-13.77-5.94v-43.31s.04-.07.06-.11l-.06-.02v-16.19h95.16v9.8c-4.98-2.32-10.5-3.47-16.23-3.47Z"/>
</svg>